<!DOCTYPE svg PUBLIC "-//W3C//DTD SVG 1.1//EN" "http://www.w3.org/Graphics/SVG/1.1/DTD/svg11.dtd"> <svg width="521px" height="521px" version="1.1" baseProfile="full" xmlns="http://www.w3.org/2000/svg" xmlns:xlink="http://www.w3.org/1999/xlink" xmlns:ev="http://www.w3.org/2001/xml-events"><polygon fill="rgb(247,132,25)" stroke="rgb(247,132,25)" points="404.4798831939697,99.83172458410263 362.4599289894104,99.93222087621689 346.34165382385254,64.23197078704834"></polygon><polygon fill="rgb(247,132,25)" stroke="rgb(247,132,25)" points="346.34165382385254,64.23197078704834 421.2828941345215,64.00815391540527 404.4798831939697,99.83172458410263"></polygon><polygon fill="rgb(228,119,25)" stroke="rgb(228,119,25)" points="362.4599289894104,99.93222087621689 258.2500534057617,21.399895668029785 346.34165382385254,64.23197078704834"></polygon><polygon fill="rgb(225,119,25)" stroke="rgb(225,119,25)" points="508.87296295166016,20.471270442008972 404.4798831939697,99.83172458410263 421.2828941345215,64.00815391540527"></polygon><polygon fill="rgb(119,57,0)" stroke="rgb(119,57,0)" points="299.2140426635742,135.86681586503983 251.30434799194336,122.18567872047424 248.9571762084961,111.18196934461594"></polygon><polygon fill="rgb(119,57,0)" stroke="rgb(119,57,0)" points="252.67767333984375,135.41008061170578 251.30434799194336,122.18567872047424 299.2140426635742,135.86681586503983"></polygon><polygon fill="rgb(119,57,0)" stroke="rgb(119,57,0)" points="259.0430488586426,154.74127572774887 299.2140426635742,135.86681586503983 319.84621810913086,138.4499415755272"></polygon><polygon fill="rgb(119,57,0)" stroke="rgb(119,57,0)" points="252.67767333984375,135.41008061170578 299.2140426635742,135.86681586503983 259.0430488586426,154.74127572774887"></polygon><polygon fill="rgb(119,57,0)" stroke="rgb(119,57,0)" points="301.9995632171631,73.97187745571136 299.2140426635742,135.86681586503983 248.9571762084961,111.18196934461594"></polygon><polygon fill="rgb(119,57,0)" stroke="rgb(119,57,0)" points="319.84621810913086,138.4499415755272 299.2140426635742,135.86681586503983 301.9995632171631,73.97187745571136"></polygon><polygon fill="rgb(119,57,0)" stroke="rgb(119,57,0)" points="468.4893550872803,135.5629078745842 518.8191947937012,110.58596688508987 516.4462051391602,121.64877641201019"></polygon><polygon fill="rgb(119,57,0)" stroke="rgb(119,57,0)" points="515.0448303222656,134.93667191267014 468.4893550872803,135.5629078745842 516.4462051391602,121.64877641201019"></polygon><polygon fill="rgb(119,57,0)" stroke="rgb(119,57,0)" points="518.8191947937012,110.58596688508987 468.4893550872803,135.5629078745842 465.21365547180176,73.51054263114929"></polygon><polygon fill="rgb(119,57,0)" stroke="rgb(119,57,0)" points="465.21365547180176,73.51054263114929 468.4893550872803,135.5629078745842 447.5268974304199,138.2262820005417"></polygon><polygon fill="rgb(119,57,0)" stroke="rgb(119,57,0)" points="508.6321792602539,154.37142246961594 447.5268974304199,138.2262820005417 468.4893550872803,135.5629078745842"></polygon><polygon fill="rgb(119,57,0)" stroke="rgb(119,57,0)" points="515.0448303222656,134.93667191267014 508.6321792602539,154.37142246961594 468.4893550872803,135.5629078745842"></polygon><polygon fill="rgb(225,119,25)" stroke="rgb(225,119,25)" points="338.847767829895,256.3592177629471 250.46203994750977,290.467685341835 319.80748558044434,261.2755030989647"></polygon><polygon fill="rgb(225,119,25)" stroke="rgb(225,119,25)" points="319.80748558044434,261.2755030989647 336.0021228790283,255.16405606269836 338.847767829895,256.3592177629471"></polygon><polygon fill="rgb(225,119,25)" stroke="rgb(225,119,25)" points="428.9106960296631,256.3783374428749 431.35736560821533,255.18240010738373 447.0727844238281,261.31295055150986"></polygon><polygon fill="rgb(225,119,25)" stroke="rgb(225,119,25)" points="447.0727844238281,261.31295055150986 517.6296157836914,290.67645597457886 428.9106960296631,256.3783374428749"></polygon><polygon fill="rgb(119,57,0)" stroke="rgb(119,57,0)" points="242.61981582641602,114.93895119428635 248.9571762084961,111.18196934461594 251.30434799194336,122.18567872047424"></polygon><polygon fill="rgb(119,57,0)" stroke="rgb(119,57,0)" points="248.9571762084961,111.18196934461594 242.17499542236328,64.41223275661469 301.9995632171631,73.97187745571136"></polygon><polygon fill="rgb(119,57,0)" stroke="rgb(119,57,0)" points="252.67767333984375,135.41008061170578 244.09743118286133,126.77901232242584 251.30434799194336,122.18567872047424"></polygon><polygon fill="rgb(119,57,0)" stroke="rgb(119,57,0)" points="525.1634674072266,114.33257800340652 516.4462051391602,121.64877641201019 518.8191947937012,110.58596688508987"></polygon><polygon fill="rgb(119,57,0)" stroke="rgb(119,57,0)" points="301.9995632171631,73.97187745571136 362.4599289894104,99.93222087621689 319.84621810913086,138.4499415755272"></polygon><polygon fill="rgb(119,57,0)" stroke="rgb(119,57,0)" points="447.5268974304199,138.2262820005417 404.4798831939697,99.83172458410263 465.21365547180176,73.51054263114929"></polygon><polygon fill="rgb(119,57,0)" stroke="rgb(119,57,0)" points="465.21365547180176,73.51054263114929 525.4107971191406,63.56568384170532 518.8191947937012,110.58596688508987"></polygon><polygon fill="rgb(119,57,0)" stroke="rgb(119,57,0)" points="515.0448303222656,134.93667191267014 516.4462051391602,121.64877641201019 523.6594390869141,126.2342614531517"></polygon><polygon fill="rgb(119,57,0)" stroke="rgb(119,57,0)" points="259.0430488586426,154.74127572774887 246.7756462097168,138.90741991996765 252.67767333984375,135.41008061170578"></polygon><polygon fill="rgb(119,57,0)" stroke="rgb(119,57,0)" points="508.6321792602539,154.37142246961594 515.0448303222656,134.93667191267014 520.951732635498,138.42864686250687"></polygon><polygon fill="rgb(247,132,25)" stroke="rgb(247,132,25)" points="259.0430488586426,154.74127572774887 319.84621810913086,138.4499415755272 300.6280174255371,155.86312633752823"></polygon><polygon fill="rgb(119,57,0)" stroke="rgb(119,57,0)" points="258.2500534057617,21.399895668029785 362.4599289894104,99.93222087621689 301.9995632171631,73.97187745571136"></polygon><polygon fill="rgb(119,57,0)" stroke="rgb(119,57,0)" points="301.9995632171631,73.97187745571136 242.17499542236328,64.41223275661469 258.2500534057617,21.399895668029785"></polygon><polygon fill="rgb(228,119,25)" stroke="rgb(228,119,25)" points="319.80748558044434,261.2755030989647 250.46203994750977,290.467685341835 235.09012985229492,220.68814620375633"></polygon><polygon fill="rgb(247,132,25)" stroke="rgb(247,132,25)" points="508.6321792602539,154.37142246961594 466.06256675720215,155.6212420463562 447.5268974304199,138.2262820005417"></polygon><polygon fill="rgb(247,132,25)" stroke="rgb(247,132,25)" points="300.6280174255371,155.86312633752823 235.09012985229492,220.68814620375633 259.0430488586426,154.74127572774887"></polygon><polygon fill="rgb(119,57,0)" stroke="rgb(119,57,0)" points="508.87296295166016,20.471270442008972 525.4107971191406,63.56568384170532 465.21365547180176,73.51054263114929"></polygon><polygon fill="rgb(119,57,0)" stroke="rgb(119,57,0)" points="465.21365547180176,73.51054263114929 404.4798831939697,99.83172458410263 508.87296295166016,20.471270442008972"></polygon><polygon fill="rgb(228,119,25)" stroke="rgb(228,119,25)" points="533.0174903869629,220.57422545552254 517.6296157836914,290.67645597457886 447.0727844238281,261.31295055150986"></polygon><polygon fill="rgb(247,132,25)" stroke="rgb(247,132,25)" points="466.06256675720215,155.6212420463562 508.6321792602539,154.37142246961594 533.0174903869629,220.57422545552254"></polygon><polygon fill="rgb(228,119,25)" stroke="rgb(228,119,25)" points="235.09012985229492,220.68814620375633 289.75943183898926,208.31659322977066 319.80748558044434,261.2755030989647"></polygon><polygon fill="rgb(247,132,25)" stroke="rgb(247,132,25)" points="289.75943183898926,208.31659322977066 235.09012985229492,220.68814620375633 300.6280174255371,155.86312633752823"></polygon><polygon fill="rgb(228,119,25)" stroke="rgb(228,119,25)" points="319.84621810913086,138.4499415755272 362.4599289894104,99.93222087621689 365.4110083580017,154.77672442793846"></polygon><polygon fill="rgb(228,119,25)" stroke="rgb(228,119,25)" points="365.4110083580017,154.77672442793846 300.6280174255371,155.86312633752823 319.84621810913086,138.4499415755272"></polygon><polygon fill="rgb(228,119,25)" stroke="rgb(228,119,25)" points="447.5268974304199,138.2262820005417 466.06256675720215,155.6212420463562 400.76071643829346,154.72445583343506"></polygon><polygon fill="rgb(228,119,25)" stroke="rgb(228,119,25)" points="400.76071643829346,154.72445583343506 404.4798831939697,99.83172458410263 447.5268974304199,138.2262820005417"></polygon><polygon fill="rgb(228,119,25)" stroke="rgb(228,119,25)" points="447.0727844238281,261.31295055150986 476.9329776763916,208.20649641752243 533.0174903869629,220.57422545552254"></polygon><polygon fill="rgb(247,132,25)" stroke="rgb(247,132,25)" points="466.06256675720215,155.6212420463562 533.0174903869629,220.57422545552254 476.9329776763916,208.20649641752243"></polygon><polygon fill="rgb(247,132,25)" stroke="rgb(247,132,25)" points="362.4599289894104,99.93222087621689 404.4798831939697,99.83172458410263 400.76071643829346,154.72445583343506"></polygon><polygon fill="rgb(247,132,25)" stroke="rgb(247,132,25)" points="400.76071643829346,154.72445583343506 365.4110083580017,154.77672442793846 362.4599289894104,99.93222087621689"></polygon><polygon fill="rgb(205,98,0)" stroke="rgb(205,98,0)" points="319.80748558044434,261.2755030989647 289.75943183898926,208.31659322977066 326.43403244018555,205.28892546892166"></polygon><polygon fill="rgb(205,98,0)" stroke="rgb(205,98,0)" points="447.0727844238281,261.31295055150986 439.79827308654785,205.21656900644302 476.9329776763916,208.20649641752243"></polygon><polygon fill="rgb(205,98,0)" stroke="rgb(205,98,0)" points="326.14245986938477,179.66658290289342 300.6280174255371,155.86312633752823 365.4110083580017,154.77672442793846"></polygon><polygon fill="rgb(205,98,0)" stroke="rgb(205,98,0)" points="400.76071643829346,154.72445583343506 466.06256675720215,155.6212420463562 440.2046070098877,179.54510225355625"></polygon><polygon fill="rgb(228,116,36)" stroke="rgb(228,116,36)" points="300.6280174255371,155.86312633752823 326.14245986938477,179.66658290289342 326.43403244018555,205.28892546892166"></polygon><polygon fill="rgb(247,132,25)" stroke="rgb(247,132,25)" points="300.6280174255371,155.86312633752823 326.43403244018555,205.28892546892166 289.75943183898926,208.31659322977066"></polygon><polygon fill="rgb(228,116,36)" stroke="rgb(228,116,36)" points="466.06256675720215,155.6212420463562 439.79827308654785,205.21656900644302 440.2046070098877,179.54510225355625"></polygon><polygon fill="rgb(247,132,25)" stroke="rgb(247,132,25)" points="476.9329776763916,208.20649641752243 439.79827308654785,205.21656900644302 466.06256675720215,155.6212420463562"></polygon><polygon fill="rgb(205,98,0)" stroke="rgb(205,98,0)" points="365.4110083580017,154.77672442793846 349.61605739593506,168.6566208153963 326.14245986938477,179.66658290289342"></polygon><polygon fill="rgb(205,98,0)" stroke="rgb(205,98,0)" points="440.2046070098877,179.54510225355625 416.6278381347656,168.57299594581127 400.76071643829346,154.72445583343506"></polygon><polygon fill="rgb(192,172,157)" stroke="rgb(192,172,157)" points="332.69178199768066,266.81463438272476 319.80748558044434,261.2755030989647 356.8973722457886,255.03965610265732"></polygon><polygon fill="rgb(36,51,67)" stroke="rgb(36,51,67)" points="359.0160026550293,186.53260454908013 326.14245986938477,179.66658290289342 349.61605739593506,168.6566208153963"></polygon><polygon fill="rgb(247,132,25)" stroke="rgb(247,132,25)" points="326.43403244018555,205.28892546892166 326.14245986938477,179.66658290289342 359.0160026550293,186.53260454908013"></polygon><polygon fill="rgb(205,98,0)" stroke="rgb(205,98,0)" points="349.61605739593506,168.6566208153963 365.4110083580017,154.77672442793846 359.0160026550293,186.53260454908013"></polygon><polygon fill="rgb(192,172,157)" stroke="rgb(192,172,157)" points="407.9241828918457,255.0493596792221 447.0727844238281,261.31295055150986 433.6952877044678,266.8536656498909"></polygon><polygon fill="rgb(36,51,67)" stroke="rgb(36,51,67)" points="407.0120015144348,186.4870007224381 416.6278381347656,168.57299594581127 440.2046070098877,179.54510225355625"></polygon><polygon fill="rgb(247,132,25)" stroke="rgb(247,132,25)" points="439.79827308654785,205.21656900644302 407.0120015144348,186.4870007224381 440.2046070098877,179.54510225355625"></polygon><polygon fill="rgb(205,98,0)" stroke="rgb(205,98,0)" points="416.6278381347656,168.57299594581127 407.0120015144348,186.4870007224381 400.76071643829346,154.72445583343506"></polygon><polygon fill="rgb(228,116,36)" stroke="rgb(228,116,36)" points="359.0160026550293,186.53260454908013 365.4110083580017,154.77672442793846 366.6077914237976,171.98753483593464"></polygon><polygon fill="rgb(247,132,25)" stroke="rgb(247,132,25)" points="366.6077914237976,171.98753483593464 365.4110083580017,154.77672442793846 400.76071643829346,154.72445583343506"></polygon><polygon fill="rgb(247,132,25)" stroke="rgb(247,132,25)" points="400.76071643829346,154.72445583343506 399.25639486312866,171.94861340522766 366.6077914237976,171.98753483593464"></polygon><polygon fill="rgb(225,119,25)" stroke="rgb(225,119,25)" points="407.0120015144348,186.4870007224381 399.25639486312866,171.94861340522766 400.76071643829346,154.72445583343506"></polygon><polygon fill="rgb(228,119,25)" stroke="rgb(228,119,25)" points="359.9549102783203,210.7899204492569 319.80748558044434,261.2755030989647 326.43403244018555,205.28892546892166"></polygon><polygon fill="rgb(214,194,178)" stroke="rgb(214,194,178)" points="356.5376501083374,238.48492056131363 356.8973722457886,255.03965610265732 319.80748558044434,261.2755030989647"></polygon><polygon fill="rgb(214,194,178)" stroke="rgb(214,194,178)" points="319.80748558044434,261.2755030989647 359.9549102783203,210.7899204492569 356.5376501083374,238.48492056131363"></polygon><polygon fill="rgb(228,119,25)" stroke="rgb(228,119,25)" points="404.45163917541504,210.76560997962952 439.79827308654785,205.21656900644302 447.0727844238281,261.31295055150986"></polygon><polygon fill="rgb(214,194,178)" stroke="rgb(214,194,178)" points="407.90475511550903,238.48053795099258 447.0727844238281,261.31295055150986 407.9241828918457,255.0493596792221"></polygon><polygon fill="rgb(214,194,178)" stroke="rgb(214,194,178)" points="447.0727844238281,261.31295055150986 407.90475511550903,238.48053795099258 404.45163917541504,210.76560997962952"></polygon><polygon fill="rgb(192,172,157)" stroke="rgb(192,172,157)" points="356.8973722457886,255.03965610265732 359.0193786621094,265.8648229241371 332.69178199768066,266.81463438272476"></polygon><polygon fill="rgb(192,172,157)" stroke="rgb(192,172,157)" points="357.9108409881592,266.82438135147095 332.69178199768066,266.81463438272476 359.0193786621094,265.8648229241371"></polygon><polygon fill="rgb(192,172,157)" stroke="rgb(192,172,157)" points="408.4125680923462,266.843896985054 357.9108409881592,266.82438135147095 359.0193786621094,265.8648229241371"></polygon><polygon fill="rgb(192,172,157)" stroke="rgb(192,172,157)" points="359.0193786621094,265.8648229241371 405.6998519897461,265.8821147084236 408.4125680923462,266.843896985054"></polygon><polygon fill="rgb(192,172,157)" stroke="rgb(192,172,157)" points="408.4125680923462,266.843896985054 405.6998519897461,265.8821147084236 433.6952877044678,266.8536656498909"></polygon><polygon fill="rgb(192,172,157)" stroke="rgb(192,172,157)" points="433.6952877044678,266.8536656498909 405.6998519897461,265.8821147084236 407.9241828918457,255.0493596792221"></polygon><polygon fill="rgb(247,132,25)" stroke="rgb(247,132,25)" points="359.9549102783203,210.7899204492569 326.43403244018555,205.28892546892166 359.0160026550293,186.53260454908013"></polygon><polygon fill="rgb(247,132,25)" stroke="rgb(247,132,25)" points="407.0120015144348,186.4870007224381 439.79827308654785,205.21656900644302 404.45163917541504,210.76560997962952"></polygon><polygon fill="rgb(228,116,36)" stroke="rgb(228,116,36)" points="366.6077914237976,171.98753483593464 365.70959186553955,206.80947971343994 359.0160026550293,186.53260454908013"></polygon><polygon fill="rgb(247,132,25)" stroke="rgb(247,132,25)" points="359.0160026550293,186.53260454908013 365.70959186553955,206.80947971343994 359.9549102783203,210.7899204492569"></polygon><polygon fill="rgb(228,116,36)" stroke="rgb(228,116,36)" points="399.25639486312866,171.94861340522766 407.0120015144348,186.4870007224381 398.6940779685974,206.7892752289772"></polygon><polygon fill="rgb(247,132,25)" stroke="rgb(247,132,25)" points="404.45163917541504,210.76560997962952 398.6940779685974,206.7892752289772 407.0120015144348,186.4870007224381"></polygon><polygon fill="rgb(247,132,25)" stroke="rgb(247,132,25)" points="366.6077914237976,171.98753483593464 399.25639486312866,171.94861340522766 398.6940779685974,206.7892752289772"></polygon><polygon fill="rgb(247,132,25)" stroke="rgb(247,132,25)" points="398.6940779685974,206.7892752289772 365.70959186553955,206.80947971343994 366.6077914237976,171.98753483593464"></polygon><polygon fill="rgb(192,172,157)" stroke="rgb(192,172,157)" points="359.0193786621094,265.8648229241371 356.8973722457886,255.03965610265732 356.5376501083374,238.48492056131363"></polygon><polygon fill="rgb(192,172,157)" stroke="rgb(192,172,157)" points="407.90475511550903,238.48053795099258 407.9241828918457,255.0493596792221 405.6998519897461,265.8821147084236"></polygon><polygon fill="rgb(192,172,157)" stroke="rgb(192,172,157)" points="356.5376501083374,238.48492056131363 359.4498710632324,233.3588991165161 359.0193786621094,265.8648229241371"></polygon><polygon fill="rgb(192,172,157)" stroke="rgb(192,172,157)" points="359.0193786621094,265.8648229241371 359.4498710632324,233.3588991165161 404.80744457244873,233.35115903615952"></polygon><polygon fill="rgb(192,172,157)" stroke="rgb(192,172,157)" points="404.80744457244873,233.35115903615952 405.6998519897461,265.8821147084236 359.0193786621094,265.8648229241371"></polygon><polygon fill="rgb(192,172,157)" stroke="rgb(192,172,157)" points="405.6998519897461,265.8821147084236 404.80744457244873,233.35115903615952 407.90475511550903,238.48053795099258"></polygon><polygon fill="rgb(0,0,0)" stroke="rgb(0,0,0)" points="359.4498710632324,233.3588991165161 356.5376501083374,238.48492056131363 359.9549102783203,210.7899204492569"></polygon><polygon fill="rgb(0,0,0)" stroke="rgb(0,0,0)" points="404.45163917541504,210.76560997962952 407.90475511550903,238.48053795099258 404.80744457244873,233.35115903615952"></polygon><polygon fill="rgb(0,0,0)" stroke="rgb(0,0,0)" points="365.2021608352661,207.60107785463333 365.70959186553955,206.80947971343994 398.6940779685974,206.7892752289772"></polygon><polygon fill="rgb(0,0,0)" stroke="rgb(0,0,0)" points="359.9549102783203,210.7899204492569 365.70959186553955,206.80947971343994 365.2021608352661,207.60107785463333"></polygon><polygon fill="rgb(0,0,0)" stroke="rgb(0,0,0)" points="398.6940779685974,206.7892752289772 398.8291096687317,207.580924898386 365.2021608352661,207.60107785463333"></polygon><polygon fill="rgb(0,0,0)" stroke="rgb(0,0,0)" points="398.8291096687317,207.580924898386 398.6940779685974,206.7892752289772 404.45163917541504,210.76560997962952"></polygon><polygon fill="rgb(0,0,0)" stroke="rgb(0,0,0)" points="359.9549102783203,210.7899204492569 361.5104298591614,211.72924184799194 359.4498710632324,233.3588991165161"></polygon><polygon fill="rgb(0,0,0)" stroke="rgb(0,0,0)" points="365.2021608352661,207.60107785463333 361.5104298591614,211.72924184799194 359.9549102783203,210.7899204492569"></polygon><polygon fill="rgb(0,0,0)" stroke="rgb(0,0,0)" points="404.80744457244873,233.35115903615952 402.5202283859253,211.70747795701027 404.45163917541504,210.76560997962952"></polygon><polygon fill="rgb(0,0,0)" stroke="rgb(0,0,0)" points="404.45163917541504,210.76560997962952 402.5202283859253,211.70747795701027 398.8291096687317,207.580924898386"></polygon><polygon fill="rgb(0,0,0)" stroke="rgb(0,0,0)" points="404.80744457244873,233.35115903615952 359.4498710632324,233.3588991165161 361.5104298591614,211.72924184799194"></polygon><polygon fill="rgb(0,0,0)" stroke="rgb(0,0,0)" points="361.5104298591614,211.72924184799194 402.5202283859253,211.70747795701027 404.80744457244873,233.35115903615952"></polygon><polygon fill="rgb(0,0,0)" stroke="rgb(0,0,0)" points="361.5104298591614,211.72924184799194 365.2021608352661,207.60107785463333 398.8291096687317,207.580924898386"></polygon><polygon fill="rgb(0,0,0)" stroke="rgb(0,0,0)" points="398.8291096687317,207.580924898386 402.5202283859253,211.70747795701027 361.5104298591614,211.72924184799194"></polygon></svg>